<mxfile host="Electron" modified="2024-05-08T03:53:30.632Z" agent="Mozilla/5.0 (Windows NT 10.0; Win64; x64) AppleWebKit/537.36 (KHTML, like Gecko) draw.io/22.1.16 Chrome/120.0.6099.109 Electron/28.1.0 Safari/537.36" etag="LiSJcXtYcu4dQk5TYRFt" version="22.1.16" type="device">
  <diagram name="第 1 页" id="ZEdKApm4-59NzeUc-bqI">
    <mxGraphModel dx="598" dy="553" grid="1" gridSize="10" guides="0" tooltips="1" connect="0" arrows="1" fold="1" page="1" pageScale="1" pageWidth="3300" pageHeight="4681" math="0" shadow="0">
      <root>
        <mxCell id="0" />
        <mxCell id="1" parent="0" />
        <mxCell id="OX3hvtmgsA2YRmJAbWnm-1" value="" style="shape=trapezoid;perimeter=trapezoidPerimeter;whiteSpace=wrap;html=1;fixedSize=1;" parent="1" vertex="1">
          <mxGeometry x="170" y="280" width="120" height="60" as="geometry" />
        </mxCell>
        <mxCell id="OX3hvtmgsA2YRmJAbWnm-26" style="edgeStyle=orthogonalEdgeStyle;rounded=0;orthogonalLoop=1;jettySize=auto;html=1;entryX=0.5;entryY=0;entryDx=0;entryDy=0;" parent="1" source="OX3hvtmgsA2YRmJAbWnm-3" target="OX3hvtmgsA2YRmJAbWnm-1" edge="1">
          <mxGeometry relative="1" as="geometry" />
        </mxCell>
        <mxCell id="OX3hvtmgsA2YRmJAbWnm-3" value="非线性层" style="rounded=0;whiteSpace=wrap;html=1;" parent="1" vertex="1">
          <mxGeometry x="187.5" y="226" width="85" height="30" as="geometry" />
        </mxCell>
        <mxCell id="OX3hvtmgsA2YRmJAbWnm-25" style="edgeStyle=orthogonalEdgeStyle;rounded=0;orthogonalLoop=1;jettySize=auto;html=1;entryX=0.5;entryY=0;entryDx=0;entryDy=0;" parent="1" source="OX3hvtmgsA2YRmJAbWnm-4" target="OX3hvtmgsA2YRmJAbWnm-3" edge="1">
          <mxGeometry relative="1" as="geometry" />
        </mxCell>
        <mxCell id="OX3hvtmgsA2YRmJAbWnm-4" value="" style="shape=trapezoid;perimeter=trapezoidPerimeter;whiteSpace=wrap;html=1;fixedSize=1;rotation=-180;" parent="1" vertex="1">
          <mxGeometry x="170" y="140" width="120" height="60" as="geometry" />
        </mxCell>
        <mxCell id="OX3hvtmgsA2YRmJAbWnm-5" value="down" style="text;html=1;strokeColor=none;fillColor=none;align=center;verticalAlign=middle;whiteSpace=wrap;rounded=0;" parent="1" vertex="1">
          <mxGeometry x="80" y="155" width="60" height="30" as="geometry" />
        </mxCell>
        <mxCell id="OX3hvtmgsA2YRmJAbWnm-6" value="up" style="text;html=1;strokeColor=none;fillColor=none;align=center;verticalAlign=middle;whiteSpace=wrap;rounded=0;" parent="1" vertex="1">
          <mxGeometry x="80" y="295" width="60" height="30" as="geometry" />
        </mxCell>
        <mxCell id="OX3hvtmgsA2YRmJAbWnm-7" value="" style="endArrow=classic;html=1;rounded=0;entryX=0.5;entryY=1;entryDx=0;entryDy=0;" parent="1" target="OX3hvtmgsA2YRmJAbWnm-4" edge="1">
          <mxGeometry width="50" height="50" relative="1" as="geometry">
            <mxPoint x="230" y="60" as="sourcePoint" />
            <mxPoint x="240" y="20" as="targetPoint" />
          </mxGeometry>
        </mxCell>
        <mxCell id="OX3hvtmgsA2YRmJAbWnm-20" style="edgeStyle=orthogonalEdgeStyle;rounded=0;orthogonalLoop=1;jettySize=auto;html=1;entryX=0;entryY=0.5;entryDx=0;entryDy=0;" parent="1" source="OX3hvtmgsA2YRmJAbWnm-17" target="OX3hvtmgsA2YRmJAbWnm-4" edge="1">
          <mxGeometry relative="1" as="geometry" />
        </mxCell>
        <mxCell id="OX3hvtmgsA2YRmJAbWnm-22" value="" style="endArrow=classic;html=1;rounded=0;" parent="1" edge="1">
          <mxGeometry width="50" height="50" relative="1" as="geometry">
            <mxPoint x="230" y="100" as="sourcePoint" />
            <mxPoint x="400" y="100" as="targetPoint" />
          </mxGeometry>
        </mxCell>
        <mxCell id="OX3hvtmgsA2YRmJAbWnm-27" value="" style="group" parent="1" vertex="1" connectable="0">
          <mxGeometry x="380" y="55.18000000000001" width="120" height="129.82" as="geometry" />
        </mxCell>
        <mxCell id="OX3hvtmgsA2YRmJAbWnm-9" value="" style="rounded=1;whiteSpace=wrap;html=1;fillColor=#d5e8d4;strokeColor=#82b366;flipH=0;rotation=0;" parent="OX3hvtmgsA2YRmJAbWnm-27" vertex="1">
          <mxGeometry x="27" width="68.75" height="78.81818181818181" as="geometry" />
        </mxCell>
        <mxCell id="OX3hvtmgsA2YRmJAbWnm-10" value="Router" style="rounded=0;whiteSpace=wrap;html=1;flipH=0;rotation=0;" parent="OX3hvtmgsA2YRmJAbWnm-27" vertex="1">
          <mxGeometry x="42" y="6" width="39.53125" height="13.909090909090908" as="geometry" />
        </mxCell>
        <mxCell id="OX3hvtmgsA2YRmJAbWnm-11" value="" style="rounded=0;whiteSpace=wrap;html=1;flipH=0;rotation=0;" parent="OX3hvtmgsA2YRmJAbWnm-27" vertex="1">
          <mxGeometry x="33" y="35" width="13.75" height="30.909090909090907" as="geometry" />
        </mxCell>
        <mxCell id="OX3hvtmgsA2YRmJAbWnm-12" value="" style="rounded=0;whiteSpace=wrap;html=1;flipH=0;rotation=0;" parent="OX3hvtmgsA2YRmJAbWnm-27" vertex="1">
          <mxGeometry x="46" y="35" width="13.75" height="30.909090909090907" as="geometry" />
        </mxCell>
        <mxCell id="OX3hvtmgsA2YRmJAbWnm-13" value="" style="rounded=0;whiteSpace=wrap;html=1;flipH=0;rotation=0;" parent="OX3hvtmgsA2YRmJAbWnm-27" vertex="1">
          <mxGeometry x="60" y="35" width="13.75" height="30.909090909090907" as="geometry" />
        </mxCell>
        <mxCell id="OX3hvtmgsA2YRmJAbWnm-14" value="" style="rounded=0;whiteSpace=wrap;html=1;flipH=0;rotation=0;" parent="OX3hvtmgsA2YRmJAbWnm-27" vertex="1">
          <mxGeometry x="74" y="35" width="13.75" height="30.909090909090907" as="geometry" />
        </mxCell>
        <mxCell id="OX3hvtmgsA2YRmJAbWnm-15" style="edgeStyle=orthogonalEdgeStyle;rounded=0;orthogonalLoop=1;jettySize=auto;html=1;entryX=0.49;entryY=0.045;entryDx=0;entryDy=0;entryPerimeter=0;" parent="OX3hvtmgsA2YRmJAbWnm-27" source="OX3hvtmgsA2YRmJAbWnm-10" target="OX3hvtmgsA2YRmJAbWnm-14" edge="1">
          <mxGeometry relative="1" as="geometry">
            <Array as="points">
              <mxPoint x="59" y="29" />
              <mxPoint x="81" y="29" />
            </Array>
          </mxGeometry>
        </mxCell>
        <mxCell id="OX3hvtmgsA2YRmJAbWnm-16" value="" style="endArrow=classic;html=1;rounded=0;exitX=0.5;exitY=1;exitDx=0;exitDy=0;" parent="OX3hvtmgsA2YRmJAbWnm-27" source="OX3hvtmgsA2YRmJAbWnm-9" edge="1">
          <mxGeometry width="50" height="50" relative="1" as="geometry">
            <mxPoint x="82" y="149.82" as="sourcePoint" />
            <mxPoint x="32" y="99.82" as="targetPoint" />
          </mxGeometry>
        </mxCell>
        <mxCell id="OX3hvtmgsA2YRmJAbWnm-17" value="weight" style="text;html=1;strokeColor=none;fillColor=none;align=center;verticalAlign=middle;whiteSpace=wrap;rounded=0;" parent="OX3hvtmgsA2YRmJAbWnm-27" vertex="1">
          <mxGeometry y="99.82" width="60" height="30" as="geometry" />
        </mxCell>
        <mxCell id="OX3hvtmgsA2YRmJAbWnm-18" value="" style="endArrow=classic;html=1;rounded=0;exitX=0.5;exitY=1;exitDx=0;exitDy=0;" parent="OX3hvtmgsA2YRmJAbWnm-27" source="OX3hvtmgsA2YRmJAbWnm-9" edge="1">
          <mxGeometry width="50" height="50" relative="1" as="geometry">
            <mxPoint x="103" y="78.82" as="sourcePoint" />
            <mxPoint x="92" y="99.82" as="targetPoint" />
          </mxGeometry>
        </mxCell>
        <mxCell id="OX3hvtmgsA2YRmJAbWnm-19" value="bias" style="text;html=1;strokeColor=none;fillColor=none;align=center;verticalAlign=middle;whiteSpace=wrap;rounded=0;" parent="OX3hvtmgsA2YRmJAbWnm-27" vertex="1">
          <mxGeometry x="60" y="99.82" width="60" height="30" as="geometry" />
        </mxCell>
        <mxCell id="OX3hvtmgsA2YRmJAbWnm-28" value="" style="group" parent="1" vertex="1" connectable="0">
          <mxGeometry x="386.88" y="200" width="120" height="129.82" as="geometry" />
        </mxCell>
        <mxCell id="OX3hvtmgsA2YRmJAbWnm-29" value="" style="rounded=1;whiteSpace=wrap;html=1;fillColor=#d5e8d4;strokeColor=#82b366;flipH=0;rotation=0;" parent="OX3hvtmgsA2YRmJAbWnm-28" vertex="1">
          <mxGeometry x="27" width="68.75" height="78.81818181818181" as="geometry" />
        </mxCell>
        <mxCell id="OX3hvtmgsA2YRmJAbWnm-30" value="Router" style="rounded=0;whiteSpace=wrap;html=1;flipH=0;rotation=0;" parent="OX3hvtmgsA2YRmJAbWnm-28" vertex="1">
          <mxGeometry x="42" y="6" width="39.53125" height="13.909090909090908" as="geometry" />
        </mxCell>
        <mxCell id="OX3hvtmgsA2YRmJAbWnm-31" value="" style="rounded=0;whiteSpace=wrap;html=1;flipH=0;rotation=0;" parent="OX3hvtmgsA2YRmJAbWnm-28" vertex="1">
          <mxGeometry x="33" y="35" width="13.75" height="30.909090909090907" as="geometry" />
        </mxCell>
        <mxCell id="OX3hvtmgsA2YRmJAbWnm-32" value="" style="rounded=0;whiteSpace=wrap;html=1;flipH=0;rotation=0;" parent="OX3hvtmgsA2YRmJAbWnm-28" vertex="1">
          <mxGeometry x="46" y="35" width="13.75" height="30.909090909090907" as="geometry" />
        </mxCell>
        <mxCell id="OX3hvtmgsA2YRmJAbWnm-33" value="" style="rounded=0;whiteSpace=wrap;html=1;flipH=0;rotation=0;" parent="OX3hvtmgsA2YRmJAbWnm-28" vertex="1">
          <mxGeometry x="60" y="35" width="13.75" height="30.909090909090907" as="geometry" />
        </mxCell>
        <mxCell id="OX3hvtmgsA2YRmJAbWnm-34" value="" style="rounded=0;whiteSpace=wrap;html=1;flipH=0;rotation=0;" parent="OX3hvtmgsA2YRmJAbWnm-28" vertex="1">
          <mxGeometry x="74" y="35" width="13.75" height="30.909090909090907" as="geometry" />
        </mxCell>
        <mxCell id="OX3hvtmgsA2YRmJAbWnm-35" style="edgeStyle=orthogonalEdgeStyle;rounded=0;orthogonalLoop=1;jettySize=auto;html=1;entryX=0.49;entryY=0.045;entryDx=0;entryDy=0;entryPerimeter=0;" parent="OX3hvtmgsA2YRmJAbWnm-28" source="OX3hvtmgsA2YRmJAbWnm-30" target="OX3hvtmgsA2YRmJAbWnm-34" edge="1">
          <mxGeometry relative="1" as="geometry">
            <Array as="points">
              <mxPoint x="59" y="29" />
              <mxPoint x="81" y="29" />
            </Array>
          </mxGeometry>
        </mxCell>
        <mxCell id="OX3hvtmgsA2YRmJAbWnm-36" value="" style="endArrow=classic;html=1;rounded=0;exitX=0.5;exitY=1;exitDx=0;exitDy=0;" parent="OX3hvtmgsA2YRmJAbWnm-28" source="OX3hvtmgsA2YRmJAbWnm-29" edge="1">
          <mxGeometry width="50" height="50" relative="1" as="geometry">
            <mxPoint x="82" y="149.82" as="sourcePoint" />
            <mxPoint x="32" y="99.82" as="targetPoint" />
          </mxGeometry>
        </mxCell>
        <mxCell id="OX3hvtmgsA2YRmJAbWnm-37" value="weight" style="text;html=1;strokeColor=none;fillColor=none;align=center;verticalAlign=middle;whiteSpace=wrap;rounded=0;" parent="OX3hvtmgsA2YRmJAbWnm-28" vertex="1">
          <mxGeometry y="99.82" width="60" height="30" as="geometry" />
        </mxCell>
        <mxCell id="OX3hvtmgsA2YRmJAbWnm-38" value="" style="endArrow=classic;html=1;rounded=0;exitX=0.5;exitY=1;exitDx=0;exitDy=0;" parent="OX3hvtmgsA2YRmJAbWnm-28" source="OX3hvtmgsA2YRmJAbWnm-29" edge="1">
          <mxGeometry width="50" height="50" relative="1" as="geometry">
            <mxPoint x="103" y="78.82" as="sourcePoint" />
            <mxPoint x="92" y="99.82" as="targetPoint" />
          </mxGeometry>
        </mxCell>
        <mxCell id="OX3hvtmgsA2YRmJAbWnm-39" value="bias" style="text;html=1;strokeColor=none;fillColor=none;align=center;verticalAlign=middle;whiteSpace=wrap;rounded=0;" parent="OX3hvtmgsA2YRmJAbWnm-28" vertex="1">
          <mxGeometry x="60" y="99.82" width="60" height="30" as="geometry" />
        </mxCell>
        <mxCell id="OX3hvtmgsA2YRmJAbWnm-40" value="" style="endArrow=classic;html=1;rounded=0;" parent="1" edge="1">
          <mxGeometry width="50" height="50" relative="1" as="geometry">
            <mxPoint x="230" y="264.40999999999997" as="sourcePoint" />
            <mxPoint x="410" y="264" as="targetPoint" />
          </mxGeometry>
        </mxCell>
        <mxCell id="OX3hvtmgsA2YRmJAbWnm-41" style="edgeStyle=orthogonalEdgeStyle;rounded=0;orthogonalLoop=1;jettySize=auto;html=1;entryX=0;entryY=0.5;entryDx=0;entryDy=0;" parent="1" edge="1">
          <mxGeometry relative="1" as="geometry">
            <mxPoint x="393.85" y="312.46000000000004" as="sourcePoint" />
            <mxPoint x="293.85" y="312.46000000000004" as="targetPoint" />
          </mxGeometry>
        </mxCell>
        <mxCell id="OX3hvtmgsA2YRmJAbWnm-42" style="edgeStyle=orthogonalEdgeStyle;rounded=0;orthogonalLoop=1;jettySize=auto;html=1;entryX=0;entryY=0.25;entryDx=0;entryDy=0;" parent="1" edge="1">
          <mxGeometry relative="1" as="geometry">
            <mxPoint x="453.85" y="324.46000000000004" as="sourcePoint" />
            <mxPoint x="289.85" y="324.46000000000004" as="targetPoint" />
            <Array as="points">
              <mxPoint x="413.85" y="324.46000000000004" />
              <mxPoint x="413.85" y="324.46000000000004" />
            </Array>
          </mxGeometry>
        </mxCell>
        <mxCell id="OX3hvtmgsA2YRmJAbWnm-43" value="embedding" style="text;html=1;strokeColor=none;fillColor=none;align=center;verticalAlign=middle;whiteSpace=wrap;rounded=0;" parent="1" vertex="1">
          <mxGeometry x="200" y="40" width="60" height="30" as="geometry" />
        </mxCell>
        <mxCell id="OX3hvtmgsA2YRmJAbWnm-44" style="edgeStyle=orthogonalEdgeStyle;rounded=0;orthogonalLoop=1;jettySize=auto;html=1;entryX=0;entryY=0.25;entryDx=0;entryDy=0;" parent="1" edge="1">
          <mxGeometry relative="1" as="geometry">
            <mxPoint x="444" y="185.00000000000003" as="sourcePoint" />
            <mxPoint x="280" y="185.00000000000003" as="targetPoint" />
            <Array as="points">
              <mxPoint x="404" y="185.00000000000003" />
              <mxPoint x="404" y="185.00000000000003" />
            </Array>
          </mxGeometry>
        </mxCell>
      </root>
    </mxGraphModel>
  </diagram>
</mxfile>
